<svg id="visual" viewBox="0 0 900 600" width="900" height="600" xmlns="http://www.w3.org/2000/svg" xmlns:xlink="http://www.w3.org/1999/xlink" version="1.1"><path d="M0 79L75 97L150 55L225 67L300 31L375 55L450 85L525 67L600 79L675 49L750 49L825 91L900 55L900 0L825 0L750 0L675 0L600 0L525 0L450 0L375 0L300 0L225 0L150 0L75 0L0 0Z" fill="#daf0ff"></path><path d="M0 145L75 145L150 85L225 133L300 97L375 85L450 115L525 145L600 163L675 85L750 97L825 133L900 85L900 53L825 89L750 47L675 47L600 77L525 65L450 83L375 53L300 29L225 65L150 53L75 95L0 77Z" fill="#bacede"></path><path d="M0 175L75 205L150 145L225 199L300 139L375 115L450 175L525 169L600 187L675 145L750 151L825 169L900 139L900 83L825 131L750 95L675 83L600 161L525 143L450 113L375 83L300 95L225 131L150 83L75 143L0 143Z" fill="#9aaebd"></path><path d="M0 211L75 229L150 175L225 259L300 175L375 139L450 199L525 205L600 253L675 181L750 205L825 235L900 163L900 137L825 167L750 149L675 143L600 185L525 167L450 173L375 113L300 137L225 197L150 143L75 203L0 173Z" fill="#7c8e9d"></path><path d="M0 283L75 331L150 385L225 397L300 367L375 355L450 325L525 277L600 373L675 379L750 319L825 307L900 355L900 161L825 233L750 203L675 179L600 251L525 203L450 197L375 137L300 173L225 257L150 173L75 227L0 209Z" fill="#5f707f"></path><path d="M0 307L75 385L150 427L225 445L300 409L375 385L450 355L525 319L600 391L675 427L750 361L825 325L900 391L900 353L825 305L750 317L675 377L600 371L525 275L450 323L375 353L300 365L225 395L150 383L75 329L0 281Z" fill="#435361"></path><path d="M0 427L75 427L150 493L225 547L300 463L375 517L450 469L525 421L600 427L675 487L750 445L825 427L900 535L900 389L825 323L750 359L675 425L600 389L525 317L450 353L375 383L300 407L225 443L150 425L75 383L0 305Z" fill="#293845"></path><path d="M0 601L75 601L150 601L225 601L300 601L375 601L450 601L525 601L600 601L675 601L750 601L825 601L900 601L900 533L825 425L750 443L675 485L600 425L525 419L450 467L375 515L300 461L225 545L150 491L75 425L0 425Z" fill="#101f2b"></path></svg>